<?xml version="1.0" encoding="UTF-8" standalone="no"?>
<svg
   xmlns:dc="http://purl.org/dc/elements/1.1/"
   xmlns:cc="http://creativecommons.org/ns#"
   xmlns:rdf="http://www.w3.org/1999/02/22-rdf-syntax-ns#"
   xmlns:svg="http://www.w3.org/2000/svg"
   xmlns="http://www.w3.org/2000/svg"
   xmlns:sodipodi="http://sodipodi.sourceforge.net/DTD/sodipodi-0.dtd"
   xmlns:inkscape="http://www.inkscape.org/namespaces/inkscape"
   width="195.79167mm"
   height="66.145836mm"
   viewBox="0 0 195.79167 66.145836"
   version="1.1"
   id="svg8"
   inkscape:version="1.0.2 (e86c870879, 2021-01-15)"
   sodipodi:docname="banner.svg">
  <defs
     id="defs2" />
  <sodipodi:namedview
     id="base"
     pagecolor="#ffffff"
     bordercolor="#666666"
     borderopacity="1.0"
     inkscape:pageopacity="0.0"
     inkscape:pageshadow="2"
     inkscape:zoom="0.7"
     inkscape:cx="417.07446"
     inkscape:cy="114.42704"
     inkscape:document-units="mm"
     inkscape:current-layer="layer1"
     inkscape:document-rotation="0"
     showgrid="false"
     inkscape:snap-bbox="true"
     inkscape:snap-bbox-midpoints="false"
     inkscape:snap-center="false"
     inkscape:bbox-nodes="true"
     fit-margin-top="0"
     fit-margin-left="0"
     fit-margin-right="0"
     fit-margin-bottom="0"
     lock-margins="false">
    <inkscape:grid
       type="xygrid"
       id="grid16"
       originx="-10.583327"
       originy="-89.95833" />
  </sodipodi:namedview>
  <metadata
     id="metadata5">
    <rdf:RDF>
      <cc:Work
         rdf:about="">
        <dc:format>image/svg+xml</dc:format>
        <dc:type
           rdf:resource="http://purl.org/dc/dcmitype/StillImage" />
        <dc:title></dc:title>
      </cc:Work>
    </rdf:RDF>
  </metadata>
  <g
     inkscape:label="Layer 1"
     inkscape:groupmode="layer"
     id="layer1"
     transform="translate(-10.583326,-89.958336)">
    <g
       id="g1989"
       inkscape:export-xdpi="537.59998"
       inkscape:export-ydpi="537.59998">
      <rect
         style="fill:#f3faeb;fill-opacity:1;stroke-width:0.165;paint-order:stroke fill markers;stop-color:#000000"
         id="rect1897"
         width="195.79167"
         height="66.145836"
         x="10.583326"
         y="89.958336"
         ry="5.2010393"
         rx="5.2010393" />
      <text
         xml:space="preserve"
         style="font-weight:300;font-size:21.6863px;line-height:1.15;font-family:Lato;-inkscape-font-specification:'Lato, Light';letter-spacing:0px;word-spacing:0px;fill:#333333;stroke-width:0.264583"
         x="83.083565"
         y="130.77295"
         id="text12"><tspan
           sodipodi:role="line"
           id="tspan10"
           x="83.083565"
           y="130.77295"
           style="fill:#333333;stroke-width:0.264583"><tspan
   style="font-weight:bold;stroke-width:0.264583"
   id="tspan1853">Meet</tspan>str</tspan></text>
      <g
         id="g978"
         transform="translate(2.2888184e-5,1.3229065)">
        <rect
           style="fill:#7ec833;fill-opacity:1;stroke-width:0.165;paint-order:stroke fill markers;stop-color:#000000"
           id="rect914"
           width="23.812527"
           height="23.812517"
           x="55.562477"
           y="109.80209"
           ry="5.291677"
           rx="5.291677" />
        <path
           id="circle920"
           style="fill:#ffffff;stroke-width:0.623622;paint-order:stroke fill markers;stop-color:#000000"
           inkscape:transform-center-x="-4.35476e-06"
           inkscape:transform-center-y="-1.0147047e-05"
           d="m 254.96289,440 a 7.5,7.5 0 0 0 -7.46289,7.5 7.5,7.5 0 0 0 7.5,7.5 7.5,7.5 0 0 0 7.5,-7.5 7.5,7.5 0 0 0 -7.5,-7.5 7.5,7.5 0 0 0 -0.0371,0 z m -24.71094,0.25195 a 4.9999998,4.9999998 0 0 0 -5,5 4.9999998,4.9999998 0 0 0 1.46485,3.53321 l -0.002,0.002 24.73438,24.73242 a 4.9999998,4.9999998 0 0 0 2.61523,1.39258 4.9999998,4.9999998 0 0 1 0.002,0 A 4.9999998,4.9999998 0 0 0 255,475 a 4.9999998,4.9999998 0 0 0 2.14258,-0.48242 4.9999998,4.9999998 0 0 0 1.39258,-0.98242 l 24.73437,-24.73243 a 4.9999998,4.9999998 0 0 0 1.47852,-3.55078 4.9999998,4.9999998 0 0 0 -5,-5 4.9999998,4.9999998 0 0 0 -3.53321,1.46485 l -0.002,-0.002 L 255,462.92969 233.80273,441.73047 a 4.9999998,4.9999998 0 0 0 -3.55078,-1.47852 z M 230,460 a 5.0000098,4.9999998 0 0 0 -5,5 v 20 a 5.0000098,4.9999998 0 0 0 5,5 5.0000098,4.9999998 0 0 0 5,-5 v -20 a 5.0000098,4.9999998 0 0 0 -5,-5 z m 50,0 a 5.0000098,4.9999998 0 0 0 -5,5 v 20 a 5.0000098,4.9999998 0 0 0 5,5 5.0000098,4.9999998 0 0 0 5,-5 v -20 a 5.0000098,4.9999998 0 0 0 -5,-5 z"
           transform="matrix(0.26458333,0,0,0.26458333,-2.2888184e-5,-1.3229065)" />
      </g>
    </g>
  </g>
</svg>
